<svg width="12" height="12" viewBox="0 0 12 12" fill="none" xmlns="http://www.w3.org/2000/svg">
<path d="M11.8165 4.59688C11.7763 4.46715 11.6694 4.37261 11.5407 4.35302L7.92394 3.80207L6.30645 0.366467C6.2489 0.244166 6.13006 0.166748 5.99998 0.166748C5.86987 0.166748 5.75106 0.244166 5.69348 0.366467L4.07592 3.80207L0.459268 4.35302C0.330548 4.37261 0.223566 4.46715 0.183371 4.59686C0.143153 4.72659 0.176695 4.86898 0.269868 4.96417L2.88684 7.63842L2.26914 11.4145C2.24713 11.549 2.29986 11.6848 2.40511 11.765C2.46465 11.8103 2.53517 11.8334 2.60604 11.8334C2.66045 11.8334 2.71505 11.8198 2.76504 11.7923L5.99995 10.0094L9.23473 11.7922C9.34991 11.8557 9.48944 11.8451 9.59469 11.765C9.69994 11.6848 9.75269 11.5489 9.7307 11.4145L9.1128 7.63842L11.7301 4.96415C11.8232 4.86898 11.8568 4.72659 11.8165 4.59688Z" fill="#FFA800"/>
</svg>
