<svg width="40" height="40" viewBox="0 0 40 40" fill="none" xmlns="http://www.w3.org/2000/svg">
<g clip-path="url(#clip0_1_949)">
<path d="M2.49985 2.72166C-0.643479 5.98666 -0.000146009 9.455 -0.000146009 19.9917C-0.000146009 28.7417 -1.52681 37.5133 6.46319 39.5783C8.95819 40.22 31.0649 40.22 33.5565 39.575C36.8832 38.7167 39.5899 36.0183 39.9599 31.3133C40.0115 30.6567 40.0115 9.33833 39.9582 8.66833C39.5649 3.65666 36.4799 0.768329 32.4149 0.183329C31.4832 0.0483293 31.2965 0.00832928 26.5165 -4.05312e-06C9.56152 0.00832928 5.84485 -0.746671 2.49985 2.72166Z" fill="url(#paint0_linear_1_949)"/>
<path d="M19.9967 5.23142C13.945 5.23142 8.19835 4.69308 6.00335 10.3264C5.09668 12.6531 5.22835 15.6748 5.22835 20.0014C5.22835 23.7981 5.10668 27.3664 6.00335 29.6748C8.19335 35.3114 13.9867 34.7714 19.9933 34.7714C25.7883 34.7714 31.7633 35.3748 33.985 29.6748C34.8933 27.3248 34.76 24.3481 34.76 20.0014C34.76 14.2314 35.0783 10.5064 32.28 7.70975C29.4467 4.87642 25.615 5.23142 19.99 5.23142H19.9967ZM18.6733 7.89308C31.2967 7.87308 32.9033 6.46975 32.0167 25.9648C31.7017 32.8598 26.4517 32.1031 19.9983 32.1031C8.23168 32.1031 7.89335 31.7664 7.89335 19.9948C7.89335 8.08642 8.82668 7.89975 18.6733 7.88975V7.89308ZM27.88 10.3448C26.9017 10.3448 26.1083 11.1381 26.1083 12.1164C26.1083 13.0948 26.9017 13.8881 27.88 13.8881C28.8583 13.8881 29.6517 13.0948 29.6517 12.1164C29.6517 11.1381 28.8583 10.3448 27.88 10.3448ZM19.9967 12.4164C15.8083 12.4164 12.4133 15.8131 12.4133 20.0014C12.4133 24.1898 15.8083 27.5848 19.9967 27.5848C24.185 27.5848 27.5783 24.1898 27.5783 20.0014C27.5783 15.8131 24.185 12.4164 19.9967 12.4164ZM19.9967 15.0781C26.505 15.0781 26.5133 24.9248 19.9967 24.9248C13.49 24.9248 13.48 15.0781 19.9967 15.0781Z" fill="white"/>
</g>
<defs>
<linearGradient id="paint0_linear_1_949" x1="2.57655" y1="37.4452" x2="39.7523" y2="5.26996" gradientUnits="userSpaceOnUse">
<stop stop-color="#FFDD55"/>
<stop offset="0.5" stop-color="#FF543E"/>
<stop offset="1" stop-color="#C837AB"/>
</linearGradient>
<clipPath id="clip0_1_949">
<rect width="40" height="40" fill="white"/>
</clipPath>
</defs>
</svg>
