<svg width="116" height="28" viewBox="0 0 116 28" fill="none" xmlns="http://www.w3.org/2000/svg">
<path d="M17.1039 13.2584C17.1164 12.3256 17.3726 11.411 17.8489 10.5997C18.3251 9.78838 19.0059 9.10673 19.8278 8.61816C19.3057 7.89714 18.6168 7.30377 17.816 6.88518C17.0152 6.46659 16.1244 6.23431 15.2145 6.20678C13.2735 6.0098 11.3918 7.32976 10.4027 7.32976C9.39447 7.32976 7.8716 6.22634 6.23171 6.25896C5.17099 6.2921 4.13723 6.59033 3.23117 7.12459C2.3251 7.65886 1.57761 8.41094 1.06155 9.30757C-1.17392 13.0497 0.49354 18.5493 2.63494 21.5742C3.70632 23.0554 4.95846 24.7099 6.59687 24.6512C8.20014 24.5869 8.79894 23.6627 10.7342 23.6627C12.6516 23.6627 13.2133 24.6512 14.885 24.6139C16.6054 24.5869 17.6893 23.1261 18.7231 21.6309C19.4929 20.5755 20.0852 19.4091 20.4782 18.1748C19.4787 17.7661 18.6258 17.0819 18.0257 16.2076C17.4257 15.3334 17.1051 14.3077 17.1039 13.2584Z" fill="white"/>
<path d="M13.9465 4.21744C14.8845 3.12869 15.3466 1.72928 15.2347 0.316406C13.8016 0.461938 12.4779 1.12417 11.5272 2.17115C11.0623 2.68262 10.7063 3.27766 10.4795 3.92225C10.2527 4.56683 10.1594 5.24832 10.2052 5.92776C10.922 5.93489 11.6311 5.78468 12.2792 5.48842C12.9272 5.19217 13.4973 4.7576 13.9465 4.21744Z" fill="white"/>
<path d="M37.3706 20.9014H31.8994L30.5855 24.6525H28.2681L33.4503 10.7744H35.858L41.0403 24.6525H38.6834L37.3706 20.9014ZM32.466 19.1705H36.8029L34.665 13.0827H34.6051L32.466 19.1705Z" fill="white"/>
<path d="M52.2323 19.5942C52.2323 22.7384 50.4917 24.7586 47.865 24.7586C47.1996 24.7922 46.5379 24.644 45.9555 24.331C45.3732 24.0179 44.8938 23.5526 44.5723 22.9883H44.5226V28H42.3745V14.5345H44.4538V16.2174H44.4933C44.8296 15.6559 45.3171 15.193 45.9038 14.878C46.4906 14.563 47.1547 14.4077 47.8255 14.4286C50.4815 14.4286 52.2323 16.4586 52.2323 19.5942ZM50.0244 19.5942C50.0244 17.5456 48.9294 16.1989 47.2588 16.1989C45.6176 16.1989 44.5136 17.574 44.5136 19.5942C44.5136 21.6329 45.6176 22.9982 47.2588 22.9982C48.9294 22.9982 50.0244 21.6612 50.0244 19.5942Z" fill="white"/>
<path d="M63.7507 19.5941C63.7507 22.7384 62.0101 24.7586 59.3834 24.7586C58.718 24.7922 58.0563 24.644 57.474 24.3309C56.8916 24.0179 56.4123 23.5526 56.0907 22.9883H56.041V28H53.8929V14.5345H55.9722V16.2174H56.0117C56.348 15.6559 56.8355 15.193 57.4222 14.878C58.009 14.563 58.6731 14.4077 59.3439 14.4286C61.9999 14.4286 63.7507 16.4586 63.7507 19.5941ZM61.5428 19.5941C61.5428 17.5456 60.4478 16.1988 58.7772 16.1988C57.136 16.1988 56.032 17.574 56.032 19.5941C56.032 21.6328 57.136 22.9982 58.7772 22.9982C60.4479 22.9982 61.5428 21.6612 61.5428 19.5941H61.5428Z" fill="white"/>
<path d="M71.363 20.7857C71.5221 22.1619 72.9049 23.0655 74.7945 23.0655C76.6051 23.0655 77.9077 22.1619 77.9077 20.9209C77.9077 19.8437 77.1221 19.1988 75.2618 18.7567L73.4016 18.3234C70.7659 17.7079 69.5422 16.5161 69.5422 14.5822C69.5422 12.1877 71.7005 10.543 74.7652 10.543C77.7982 10.543 79.8774 12.1877 79.9474 14.5822H77.779C77.6492 13.1972 76.4651 12.3612 74.7346 12.3612C73.0042 12.3612 71.8201 13.207 71.8201 14.4381C71.8201 15.4193 72.5764 15.9966 74.4265 16.4386L76.0079 16.814C78.9529 17.4874 80.1765 18.6312 80.1765 20.6611C80.1765 23.2575 78.0375 24.8837 74.6353 24.8837C71.4521 24.8837 69.3029 23.2957 69.1641 20.7856L71.363 20.7857Z" fill="white"/>
<path d="M84.8127 12.1396V14.5341H86.8027V16.1789H84.8127V21.7569C84.8127 22.6235 85.2111 23.0273 86.0859 23.0273C86.3222 23.0233 86.5581 23.0073 86.7926 22.9792V24.6141C86.3992 24.6852 85.9995 24.7174 85.5994 24.7102C83.4807 24.7102 82.6544 23.9407 82.6544 21.9784V16.1789H81.1328V14.5341H82.6544V12.1396H84.8127Z" fill="white"/>
<path d="M87.9556 19.5937C87.9556 16.4102 89.8948 14.4097 92.9188 14.4097C95.953 14.4097 97.8833 16.4101 97.8833 19.5937C97.8833 22.786 95.9632 24.7778 92.9188 24.7778C89.8756 24.7778 87.9556 22.786 87.9556 19.5937ZM95.6945 19.5937C95.6945 17.4099 94.6594 16.121 92.9188 16.121C91.1782 16.121 90.1443 17.4197 90.1443 19.5937C90.1443 21.7863 91.1782 23.0654 92.9188 23.0654C94.6594 23.0654 95.6945 21.7863 95.6945 19.5937H95.6945Z" fill="white"/>
<path d="M99.6533 14.5344H101.702V16.2566H101.752C101.89 15.7187 102.216 15.2434 102.675 14.9105C103.133 14.5775 103.696 14.4074 104.269 14.4285C104.517 14.4277 104.763 14.4537 105.005 14.506V16.4487C104.692 16.3563 104.366 16.3139 104.04 16.3232C103.728 16.3109 103.417 16.3641 103.128 16.4791C102.839 16.5941 102.579 16.7681 102.367 16.9893C102.154 17.2105 101.993 17.4735 101.896 17.7603C101.798 18.0472 101.766 18.351 101.801 18.6511V24.6526H99.6533L99.6533 14.5344Z" fill="white"/>
<path d="M114.909 21.6805C114.62 23.5173 112.77 24.7778 110.403 24.7778C107.359 24.7778 105.469 22.8057 105.469 19.6418C105.469 16.468 107.369 14.4097 110.313 14.4097C113.208 14.4097 115.029 16.3327 115.029 19.4006V20.1121H107.638V20.2376C107.604 20.61 107.652 20.9852 107.779 21.3381C107.906 21.6911 108.11 22.0138 108.376 22.2849C108.643 22.556 108.965 22.7692 109.323 22.9103C109.681 23.0515 110.066 23.1174 110.453 23.1036C110.96 23.1496 111.47 23.0359 111.905 22.7795C112.341 22.5231 112.679 22.1376 112.87 21.6805L114.909 21.6805ZM107.648 18.6606H112.88C112.899 18.3258 112.847 17.9907 112.726 17.6764C112.605 17.3622 112.418 17.0755 112.177 16.8343C111.936 16.5932 111.646 16.4028 111.325 16.2752C111.004 16.1475 110.66 16.0854 110.313 16.0926C109.963 16.0906 109.616 16.1555 109.293 16.2838C108.969 16.412 108.675 16.601 108.427 16.8397C108.179 17.0785 107.983 17.3623 107.849 17.6748C107.715 17.9874 107.647 18.3224 107.648 18.6606V18.6606Z" fill="white"/>
<path d="M32.1966 0.328856C32.6469 0.297609 33.0988 0.36339 33.5197 0.521452C33.9405 0.679514 34.3199 0.925918 34.6303 1.24289C34.9408 1.55986 35.1746 1.9395 35.3149 2.35443C35.4553 2.76935 35.4986 3.20921 35.4418 3.64229C35.4418 5.77267 34.251 6.99726 32.1966 6.99726H29.7053V0.328856H32.1966ZM30.7765 6.0542H32.0769C32.3987 6.0728 32.7207 6.02178 33.0196 5.90487C33.3184 5.78795 33.5865 5.60808 33.8044 5.37835C34.0223 5.14861 34.1844 4.8748 34.2791 4.57683C34.3737 4.27886 34.3984 3.96425 34.3514 3.65588C34.395 3.34873 34.3678 3.03607 34.2717 2.74029C34.1756 2.4445 34.0131 2.17293 33.7957 1.94502C33.5783 1.71711 33.3115 1.53852 33.0143 1.42202C32.7172 1.30553 32.3971 1.25403 32.0769 1.27121H30.7765V6.0542Z" fill="white"/>
<path d="M36.652 4.47827C36.6193 4.14756 36.6584 3.81388 36.7669 3.49865C36.8753 3.18342 37.0507 2.89358 37.2819 2.64774C37.513 2.40189 37.7947 2.20546 38.1089 2.07104C38.4231 1.93662 38.7629 1.86719 39.1065 1.86719C39.4502 1.86719 39.79 1.93662 40.1042 2.07104C40.4184 2.20546 40.7001 2.40189 40.9312 2.64774C41.1623 2.89358 41.3378 3.18342 41.4462 3.49865C41.5547 3.81388 41.5938 4.14756 41.5611 4.47827C41.5944 4.80932 41.5558 5.14345 41.4476 5.4592C41.3394 5.77494 41.1641 6.06531 40.9329 6.31164C40.7018 6.55797 40.4199 6.75481 40.1053 6.88952C39.7908 7.02422 39.4506 7.09381 39.1065 7.09381C38.7625 7.09381 38.4223 7.02422 38.1078 6.88952C37.7932 6.75481 37.5113 6.55797 37.2802 6.31164C37.049 6.06531 36.8737 5.77494 36.7655 5.4592C36.6573 5.14345 36.6186 4.80932 36.652 4.47827V4.47827ZM40.5045 4.47827C40.5045 3.38744 39.9977 2.74952 39.1082 2.74952C38.2154 2.74952 37.7131 3.38744 37.7131 4.47828C37.7131 5.57785 38.2154 6.21085 39.1082 6.21085C39.9977 6.21084 40.5046 5.57347 40.5046 4.47827H40.5045Z" fill="white"/>
<path d="M48.0867 6.99672H47.0211L45.9453 3.29038H45.8641L44.7929 6.99672H43.7374L42.3027 1.96436H43.3446L44.277 5.80435H44.3538L45.4239 1.96436H46.4093L47.4794 5.80435H47.5606L48.4885 1.96436H49.5157L48.0867 6.99672Z" fill="white"/>
<path d="M50.7222 1.9644H51.711V2.76383H51.7878C51.918 2.47671 52.1376 2.23601 52.416 2.0753C52.6944 1.91458 53.0178 1.84186 53.341 1.86726C53.5942 1.84885 53.8485 1.88577 54.085 1.97528C54.3215 2.0648 54.5341 2.20461 54.7071 2.38436C54.8802 2.56412 55.0091 2.77921 55.0845 3.0137C55.1599 3.24819 55.1797 3.49607 55.1425 3.73898V6.99671H54.1153V3.98837C54.1153 3.17966 53.7519 2.77748 52.9922 2.77748C52.8202 2.76974 52.6486 2.79803 52.489 2.86043C52.3294 2.92282 52.1857 3.01784 52.0676 3.13897C51.9496 3.2601 51.86 3.40447 51.8051 3.56219C51.7502 3.71992 51.7312 3.88726 51.7494 4.05276V6.99677H50.7222L50.7222 1.9644Z" fill="white"/>
<path d="M56.7797 0H57.8069V6.99686H56.7797V0Z" fill="white"/>
<path d="M59.2346 4.47836C59.2019 4.14763 59.2411 3.81394 59.3496 3.49869C59.458 3.18345 59.6335 2.8936 59.8646 2.64775C60.0958 2.4019 60.3775 2.20546 60.6917 2.07104C61.006 1.93662 61.3458 1.86719 61.6894 1.86719C62.0331 1.86719 62.3729 1.93662 62.6872 2.07104C63.0014 2.20546 63.2831 2.4019 63.5143 2.64775C63.7454 2.8936 63.9208 3.18345 64.0293 3.49869C64.1378 3.81394 64.177 4.14763 64.1443 4.47836C64.1776 4.80943 64.1389 5.14357 64.0307 5.45931C63.9224 5.77505 63.7471 6.06541 63.5159 6.31173C63.2847 6.55806 63.0028 6.75489 62.6882 6.88959C62.3737 7.02429 62.0335 7.09388 61.6894 7.09388C61.3454 7.09388 61.0052 7.02429 60.6906 6.88959C60.3761 6.75489 60.0942 6.55806 59.863 6.31173C59.6318 6.06541 59.4564 5.77505 59.3482 5.45931C59.24 5.14357 59.2013 4.80943 59.2346 4.47836V4.47836ZM63.0872 4.47836C63.0872 3.38753 62.5803 2.74962 61.6908 2.74962C60.798 2.74962 60.2957 3.38753 60.2957 4.47838C60.2957 5.57795 60.798 6.21094 61.6908 6.21094C62.5803 6.21093 63.0872 5.57357 63.0872 4.47836H63.0872Z" fill="white"/>
<path d="M65.2255 5.57352C65.2255 4.66767 65.9231 4.14545 67.1613 4.07123L68.5712 3.99265V3.55828C68.5712 3.02677 68.2077 2.72665 67.5056 2.72665C66.9322 2.72665 66.5349 2.93019 66.4209 3.28598H65.4264C65.5314 2.42161 66.3723 1.86719 67.553 1.86719C68.8579 1.86719 69.5939 2.49527 69.5939 3.55828V6.99668H68.6051V6.28947H68.5238C68.3588 6.54315 68.1272 6.74996 67.8525 6.88877C67.5779 7.02759 67.27 7.09344 66.9604 7.0796C66.7419 7.10157 66.5211 7.07903 66.3121 7.01343C66.1032 6.94783 65.9108 6.84063 65.7473 6.69873C65.5839 6.55683 65.453 6.38339 65.3631 6.18959C65.2732 5.99578 65.2263 5.78592 65.2255 5.57352V5.57352ZM68.5712 5.14351V4.72279L67.3002 4.80136C66.5834 4.84774 66.2583 5.08348 66.2583 5.52713C66.2583 5.98005 66.6647 6.24362 67.2235 6.24362C67.3872 6.25964 67.5526 6.24366 67.7098 6.19662C67.867 6.14958 68.0128 6.07245 68.1385 5.96981C68.2643 5.86717 68.3674 5.74112 68.4417 5.59917C68.516 5.45721 68.5601 5.30225 68.5712 5.14351V5.14351Z" fill="white"/>
<path d="M70.9442 4.47851C70.9442 2.88836 71.7897 1.88102 73.1047 1.88102C73.43 1.86652 73.7528 1.94185 74.0355 2.0982C74.3181 2.25454 74.5489 2.48544 74.7008 2.7639H74.7776V0H75.8048V6.99686H74.8205V6.20178H74.7392C74.5755 6.47837 74.3367 6.70639 74.0486 6.86116C73.7605 7.01592 73.4341 7.09153 73.1047 7.07979C71.7807 7.07985 70.9442 6.07247 70.9442 4.47851ZM72.0053 4.47851C72.0053 5.54588 72.5257 6.18817 73.396 6.18817C74.2618 6.18817 74.7968 5.53662 74.7968 4.48288C74.7968 3.43405 74.2561 2.77322 73.396 2.77322C72.5313 2.77322 72.0053 3.41986 72.0053 4.47851H72.0053Z" fill="white"/>
<path d="M80.0545 4.47827C80.0217 4.14756 80.0609 3.81388 80.1693 3.49865C80.2778 3.18342 80.4532 2.89358 80.6843 2.64774C80.9154 2.40189 81.1971 2.20546 81.5114 2.07104C81.8256 1.93662 82.1654 1.86719 82.509 1.86719C82.8526 1.86719 83.1924 1.93662 83.5067 2.07104C83.8209 2.20546 84.1026 2.40189 84.3337 2.64774C84.5648 2.89358 84.7402 3.18342 84.8487 3.49865C84.9572 3.81388 84.9963 4.14756 84.9636 4.47827C84.9969 4.80932 84.9582 5.14345 84.8501 5.4592C84.7419 5.77494 84.5666 6.06531 84.3354 6.31164C84.1042 6.55797 83.8223 6.75481 83.5078 6.88952C83.1932 7.02422 82.853 7.09381 82.509 7.09381C82.165 7.09381 81.8248 7.02422 81.5102 6.88952C81.1957 6.75481 80.9138 6.55797 80.6826 6.31164C80.4514 6.06531 80.2761 5.77494 80.168 5.4592C80.0598 5.14345 80.0211 4.80932 80.0545 4.47827V4.47827ZM83.907 4.47827C83.907 3.38744 83.4002 2.74952 82.5107 2.74952C81.6178 2.74952 81.1156 3.38744 81.1156 4.47828C81.1156 5.57785 81.6179 6.21085 82.5107 6.21085C83.4002 6.21084 83.907 5.57347 83.907 4.47827Z" fill="white"/>
<path d="M86.3422 1.9644H87.331V2.76383H87.4077C87.538 2.47671 87.7576 2.23601 88.036 2.0753C88.3144 1.91458 88.6378 1.84186 88.961 1.86726C89.2142 1.84885 89.4685 1.88577 89.705 1.97528C89.9415 2.0648 90.1541 2.20461 90.3271 2.38436C90.5002 2.56412 90.6291 2.77921 90.7045 3.0137C90.7799 3.24819 90.7997 3.49607 90.7625 3.73898V6.99671H89.7353V3.98837C89.7353 3.17966 89.3718 2.77748 88.6122 2.77748C88.4402 2.76974 88.2686 2.79803 88.109 2.86043C87.9494 2.92282 87.8057 3.01784 87.6876 3.13897C87.5696 3.2601 87.48 3.40447 87.4251 3.56219C87.3702 3.71992 87.3512 3.88726 87.3694 4.05276V6.99677H86.3422V1.9644Z" fill="white"/>
<path d="M96.5659 0.711426V1.98725H97.6936V2.8238H96.5659V5.41147C96.5659 5.93861 96.7905 6.16943 97.3019 6.16943C97.4328 6.16903 97.5636 6.16138 97.6936 6.14651V6.97378C97.5091 7.00569 97.3222 7.02266 97.1348 7.02453C95.9925 7.02453 95.5376 6.63599 95.5376 5.66575V2.82376H94.7113V1.98721H95.5376V0.711426H96.5659Z" fill="white"/>
<path d="M99.0975 0H100.116V2.77321H100.197C100.334 2.4834 100.559 2.24134 100.843 2.08002C101.127 1.9187 101.456 1.84597 101.784 1.87173C102.036 1.85847 102.288 1.89914 102.522 1.99083C102.755 2.08252 102.965 2.22297 103.137 2.40216C103.308 2.58135 103.436 2.79486 103.512 3.02747C103.588 3.26007 103.61 3.50604 103.577 3.74781V6.99687H102.548V3.99282C102.548 3.18902 102.161 2.78193 101.435 2.78193C101.259 2.76793 101.081 2.79139 100.915 2.85069C100.749 2.90998 100.598 3.00366 100.473 3.12518C100.348 3.24671 100.252 3.39313 100.192 3.55422C100.132 3.7153 100.109 3.88715 100.125 4.05775V6.99684H99.0976L99.0975 0Z" fill="white"/>
<path d="M109.566 5.638C109.426 6.09792 109.124 6.49576 108.712 6.76191C108.299 7.02806 107.804 7.14558 107.311 7.0939C106.968 7.10265 106.627 7.03915 106.312 6.9078C105.997 6.77645 105.715 6.58041 105.487 6.33327C105.258 6.08613 105.087 5.79382 104.987 5.47663C104.887 5.15944 104.859 4.82496 104.906 4.49642C104.861 4.16686 104.889 3.83166 104.989 3.51352C105.089 3.19537 105.258 2.90171 105.486 2.65241C105.713 2.40311 105.994 2.20399 106.308 2.06853C106.622 1.93307 106.962 1.86444 107.306 1.86727C108.754 1.86727 109.628 2.82392 109.628 4.40417V4.75072H105.953V4.80637C105.937 4.99105 105.961 5.17694 106.023 5.35212C106.086 5.5273 106.186 5.6879 106.316 5.82364C106.447 5.95937 106.605 6.06724 106.781 6.14033C106.957 6.21342 107.147 6.25011 107.339 6.24805C107.585 6.27657 107.834 6.23379 108.054 6.12515C108.275 6.01652 108.457 5.84693 108.577 5.63796L109.566 5.638ZM105.953 4.0162H108.582C108.595 3.84731 108.571 3.67766 108.512 3.51816C108.453 3.35866 108.36 3.21284 108.24 3.09007C108.119 2.96729 107.973 2.87028 107.811 2.80527C107.65 2.74025 107.476 2.70867 107.3 2.71255C107.123 2.71039 106.947 2.74264 106.782 2.8074C106.617 2.87216 106.468 2.96811 106.342 3.08961C106.217 3.2111 106.118 3.35568 106.051 3.51482C105.984 3.67396 105.95 3.84443 105.953 4.0162H105.953Z" fill="white"/>
</svg>
