<svg width="109" height="29" viewBox="0 0 109 29" fill="none" xmlns="http://www.w3.org/2000/svg">
<path d="M35.2259 4.46785C35.2259 5.33224 34.9909 6.02169 34.521 6.52592C33.9947 7.13305 33.2992 7.44176 32.4534 7.44176C31.6357 7.44176 30.9497 7.13305 30.3764 6.51563C29.8031 5.89821 29.5211 5.12643 29.5211 4.22088C29.5211 3.30504 29.8031 2.54355 30.3764 1.92613C30.9497 1.30871 31.6357 1 32.4534 1C32.8575 1 33.2428 1.08232 33.6094 1.25726C33.9759 1.43219 34.2672 1.65858 34.4928 1.94671L33.9947 2.4921C33.6188 2.00845 33.1113 1.76149 32.4534 1.76149C31.8613 1.76149 31.3444 1.98787 30.9121 2.45094C30.4797 2.90372 30.2636 3.50056 30.2636 4.23117C30.2636 4.96179 30.4797 5.55863 30.9121 6.0114C31.3444 6.46418 31.8613 6.70086 32.4534 6.70086C33.0831 6.70086 33.6094 6.47447 34.0323 6.0114C34.3048 5.71298 34.4646 5.29108 34.5022 4.75598H32.4534V4.01507H35.1883C35.2071 4.16943 35.2259 4.32378 35.2259 4.46785Z" fill="white" stroke="white" stroke-width="0.2" stroke-miterlimit="10"/>
<path d="M39.5584 1.89528H36.9927V3.85044H39.3047V4.59135H36.9927V6.54652H39.5584V7.308H36.269V1.13379H39.5584V1.89528V1.89528Z" fill="white" stroke="white" stroke-width="0.2" stroke-miterlimit="10"/>
<path d="M42.6127 7.308H41.8891V1.89528H40.3102V1.13379H44.1822V1.89528H42.6033V7.308H42.6127Z" fill="white" stroke="white" stroke-width="0.2" stroke-miterlimit="10"/>
<path d="M46.9924 7.308V1.13379H47.716V7.308H46.9924Z" fill="white" stroke="white" stroke-width="0.2" stroke-miterlimit="10"/>
<path d="M50.9302 7.308H50.2065V1.89528H48.6276V1.13379H52.4997V1.89528H50.9208V7.308H50.9302Z" fill="white" stroke="white" stroke-width="0.2" stroke-miterlimit="10"/>
<path d="M59.84 6.50534C59.2855 7.13305 58.5994 7.44176 57.7723 7.44176C56.9453 7.44176 56.2592 7.13305 55.7047 6.50534C55.1502 5.87763 54.8777 5.11614 54.8777 4.22088C54.8777 3.32562 55.1502 2.55384 55.7047 1.93642C56.2592 1.30871 56.9453 1 57.7723 1C58.59 1 59.2761 1.30871 59.84 1.93642C60.3945 2.56413 60.6764 3.32562 60.6764 4.22088C60.667 5.12643 60.3945 5.88792 59.84 6.50534ZM56.2404 5.99082C56.654 6.45389 57.1709 6.68027 57.7723 6.68027C58.3738 6.68027 58.8907 6.45389 59.3043 5.99082C59.7178 5.52775 59.9339 4.9412 59.9339 4.22088C59.9339 3.50056 59.7272 2.91401 59.3043 2.45094C58.8907 1.98787 58.3738 1.76149 57.7723 1.76149C57.1709 1.76149 56.654 1.98787 56.2404 2.45094C55.8269 2.91401 55.6107 3.50056 55.6107 4.22088C55.6107 4.9412 55.8269 5.52775 56.2404 5.99082Z" fill="white" stroke="white" stroke-width="0.2" stroke-miterlimit="10"/>
<path d="M61.6911 7.308V1.13379H62.5745L65.3188 5.93938H65.347L65.3188 4.7457V1.13379H66.0425V7.308H65.2906L62.4242 2.27602H62.396L62.4242 3.4697V7.308H61.6911Z" fill="white" stroke="white" stroke-width="0.2" stroke-miterlimit="10"/>
<path d="M54.6989 16.3121C52.4903 16.3121 50.6858 18.154 50.6858 20.6855C50.6858 23.2066 52.4903 25.0589 54.6989 25.0589C56.9074 25.0589 58.7119 23.2066 58.7119 20.6855C58.7119 18.154 56.9074 16.3121 54.6989 16.3121ZM54.6989 23.3404C53.4865 23.3404 52.4433 22.2496 52.4433 20.6855C52.4433 19.111 53.4865 18.0305 54.6989 18.0305C55.9112 18.0305 56.9544 19.111 56.9544 20.6855C56.9544 22.2496 55.9018 23.3404 54.6989 23.3404ZM45.9397 16.3121C43.7311 16.3121 41.9266 18.154 41.9266 20.6855C41.9266 23.2066 43.7311 25.0589 45.9397 25.0589C48.1483 25.0589 49.9527 23.2066 49.9527 20.6855C49.9527 18.154 48.1483 16.3121 45.9397 16.3121ZM45.9397 23.3404C44.7273 23.3404 43.6841 22.2496 43.6841 20.6855C43.6841 19.111 44.7273 18.0305 45.9397 18.0305C47.1521 18.0305 48.1953 19.111 48.1953 20.6855C48.1953 22.2496 47.1521 23.3404 45.9397 23.3404ZM35.5264 17.6601V19.5124H39.5865C39.4643 20.5517 39.1448 21.3235 38.6655 21.8483C38.0734 22.4966 37.1523 23.2066 35.5358 23.2066C33.0359 23.2066 31.0811 21.0045 31.0811 18.2672C31.0811 15.53 33.0359 13.3279 35.5358 13.3279C36.8798 13.3279 37.8666 13.9041 38.5903 14.6553L39.7838 13.3484C38.7688 12.2885 37.4249 11.4756 35.5264 11.4756C32.1055 11.4756 29.2296 14.5215 29.2296 18.2775C29.2296 22.0232 32.1055 25.0794 35.5264 25.0794C37.3779 25.0794 38.7688 24.4209 39.859 23.1757C40.9774 21.9512 41.3252 20.2224 41.3252 18.8332C41.3252 18.401 41.297 17.9997 41.2312 17.6704H35.5264V17.6601ZM78.1099 19.1007C77.781 18.1232 76.766 16.3121 74.6889 16.3121C72.6307 16.3121 70.9202 18.082 70.9202 20.6855C70.9202 23.1346 72.6119 25.0589 74.8863 25.0589C76.719 25.0589 77.781 23.8343 78.2133 23.1243L76.8505 22.1261C76.3994 22.8567 75.7791 23.3404 74.8863 23.3404C73.9935 23.3404 73.3544 22.8876 72.9503 22.0129L78.2979 19.5947L78.1099 19.1007ZM72.6589 20.562C72.6119 18.8744 73.8525 18.01 74.7453 18.01C75.4408 18.01 76.0329 18.3907 76.2303 18.9361L72.6589 20.562ZM68.3169 24.8016H70.0744V11.9387H68.3169V24.8016ZM65.4411 17.2896H65.3753C64.9805 16.7751 64.2287 16.3121 63.2701 16.3121C61.2682 16.3121 59.4356 18.2364 59.4356 20.706C59.4356 23.1551 61.2682 25.0691 63.2701 25.0691C64.2193 25.0691 64.9805 24.6061 65.3753 24.071H65.4317V24.6987C65.4317 26.376 64.614 27.2713 63.2983 27.2713C62.2269 27.2713 61.5596 26.4275 61.287 25.7174L59.7551 26.4172C60.1968 27.58 61.3622 29.0001 63.2983 29.0001C65.3565 29.0001 67.0952 27.6726 67.0952 24.4414V16.5796H65.4317V17.2896H65.4411ZM63.4204 23.3404C62.2081 23.3404 61.1931 22.229 61.1931 20.706C61.1931 19.1625 62.2081 18.0408 63.4204 18.0408C64.614 18.0408 65.5538 19.1728 65.5538 20.706C65.5632 22.229 64.6234 23.3404 63.4204 23.3404ZM86.3428 11.9387H82.1417V24.8016H83.8992V19.924H86.3522C88.2976 19.924 90.2054 18.3804 90.2054 15.9313C90.2054 13.4822 88.2788 11.9387 86.3428 11.9387ZM86.3804 18.1334H83.8898V13.7189H86.3804C87.6961 13.7189 88.4386 14.9126 88.4386 15.921C88.4386 16.9295 87.6961 18.1334 86.3804 18.1334ZM97.2259 16.2915C95.9572 16.2915 94.6414 16.9089 94.0963 18.2569L95.6564 18.967C95.9854 18.2569 96.6056 18.0203 97.2541 18.0203C98.1564 18.0203 99.0868 18.6171 99.0962 19.677V19.8108C98.7766 19.6153 98.1 19.3168 97.2635 19.3168C95.5812 19.3168 93.8802 20.3253 93.8802 22.2084C93.8802 23.9269 95.2523 25.0383 96.7936 25.0383C97.9684 25.0383 98.6263 24.462 99.0304 23.7828H99.0868V24.781H100.778V19.8519C100.788 17.5675 99.2278 16.2915 97.2259 16.2915ZM97.0098 23.3404C96.4365 23.3404 95.6376 23.0214 95.6376 22.2496C95.6376 21.2617 96.6338 20.881 97.4985 20.881C98.2691 20.881 98.6357 21.0662 99.0962 21.3132C98.9646 22.4966 98.0248 23.3404 97.0098 23.3404ZM106.953 16.5693L104.942 22.1467H104.885L102.799 16.5693H100.91L104.04 24.3694L102.254 28.7016H104.087L108.908 16.5693H106.953ZM91.1641 24.8016H92.9215V11.9387H91.1641V24.8016Z" fill="white"/>
<path d="M0.470528 1.68922C0.197979 2.00822 0.038208 2.50216 0.038208 3.12987V25.8921C0.038208 26.5301 0.197979 27.0241 0.470528 27.3328L0.536316 27.4048L12.1807 14.6654V14.511V14.3566L0.536316 1.61719L0.470528 1.68922Z" fill="url(#paint0_linear_1_1547)"/>
<path d="M16.0623 18.9155L12.1808 14.6656V14.5112V14.3569L16.0623 10.1069L16.1468 10.1584L20.7426 13.0191C22.0583 13.832 22.0583 15.1698 20.7426 15.993L16.1468 18.8537L16.0623 18.9155Z" fill="url(#paint1_linear_1_1547)"/>
<path d="M16.1471 18.8538L12.181 14.5112L0.470825 27.333C0.903145 27.8372 1.61741 27.899 2.42566 27.3948L16.1471 18.8538Z" fill="url(#paint2_linear_1_1547)"/>
<path d="M16.1472 10.1685L2.41638 1.62752C1.60813 1.12329 0.893867 1.18504 0.461548 1.68926L12.1812 14.511L16.1472 10.1685Z" fill="url(#paint3_linear_1_1547)"/>
<path opacity="0.2" d="M16.063 18.7612L2.41675 27.2508C1.65549 27.7241 0.96942 27.6933 0.537101 27.2611L0.471313 27.3331L0.537101 27.4051C0.978819 27.8373 1.65549 27.8682 2.41675 27.3948L16.1476 18.8538L16.063 18.7612Z" fill="#2E3A59"/>
<path opacity="0.12" d="M0.471015 27.1892C0.198467 26.8702 0.0386963 26.3762 0.0386963 25.7485V25.9029C0.0386963 26.5409 0.198467 27.0348 0.471015 27.3435L0.536802 27.2715L0.471015 27.1892Z" fill="#2E3A59"/>
<path opacity="0.12" d="M20.7426 15.849L16.0529 18.7611L16.1375 18.8538L20.7332 15.993C21.3911 15.5814 21.7201 15.0463 21.7201 14.5112C21.6731 14.9949 21.3441 15.4785 20.7426 15.849Z" fill="#2E3A59"/>
<path opacity="0.25" d="M2.41609 1.77188L20.7427 13.1736C21.3348 13.544 21.6731 14.0174 21.7295 14.5113C21.7295 13.9762 21.4005 13.4309 20.7427 13.0295L2.41609 1.62782C1.10033 0.814879 0.0289307 1.49404 0.0289307 3.1405V3.29486C0.0289307 1.63811 1.10973 0.958945 2.41609 1.77188Z" fill="white"/>
<defs>
<linearGradient id="paint0_linear_1_1547" x1="11.1467" y1="2.89288" x2="-6.05226" y2="18.6008" gradientUnits="userSpaceOnUse">
<stop stop-color="#00A0FF"/>
<stop offset="0.00657445" stop-color="#00A1FF"/>
<stop offset="0.2601" stop-color="#00BEFF"/>
<stop offset="0.5122" stop-color="#00D2FF"/>
<stop offset="0.7604" stop-color="#00DFFF"/>
<stop offset="1" stop-color="#00E3FF"/>
</linearGradient>
<linearGradient id="paint1_linear_1_1547" x1="22.4572" y1="14.5126" x2="-0.283637" y2="14.5126" gradientUnits="userSpaceOnUse">
<stop stop-color="#FFE000"/>
<stop offset="0.4087" stop-color="#FFBD00"/>
<stop offset="0.7754" stop-color="#FFA500"/>
<stop offset="1" stop-color="#FF9C00"/>
</linearGradient>
<linearGradient id="paint2_linear_1_1547" x1="13.9921" y1="16.874" x2="-9.33105" y2="38.1752" gradientUnits="userSpaceOnUse">
<stop stop-color="#FF3A44"/>
<stop offset="1" stop-color="#C31162"/>
</linearGradient>
<linearGradient id="paint3_linear_1_1547" x1="-2.48264" y1="-5.88835" x2="7.93217" y2="3.62348" gradientUnits="userSpaceOnUse">
<stop stop-color="#32A071"/>
<stop offset="0.0685" stop-color="#2DA771"/>
<stop offset="0.4762" stop-color="#15CF74"/>
<stop offset="0.8009" stop-color="#06E775"/>
<stop offset="1" stop-color="#00F076"/>
</linearGradient>
</defs>
</svg>
